<svg width="317" height="400" viewBox="0 0 317 400" fill="none" xmlns="http://www.w3.org/2000/svg">
<path d="M5.48795 25.6491C5.47793 32.6285 5.28581 54.5136 5.3109 77.7103C5.31925 85.4222 3.49272 100.553 5.11415 116.567C5.92876 124.612 8.2675 129.451 8.27247 152.602C8.2751 164.871 6.70248 179.006 7.70766 191.21C8.34388 198.934 7.94999 206.6 7.33092 214.934C6.55427 225.389 8.20591 237.508 9.98434 249.773C13.6057 274.749 9.67983 282.568 8.71831 287.786C7.71115 293.251 7.95172 306.422 8.29309 315.017C8.48116 319.752 10.5922 324.3 13.0886 331.046C15.1566 336.635 14.9394 343.449 15.5554 383.605C15.6716 391.18 16.4786 390.236 17.4406 389.749C22.4778 387.201 29.8143 390.149 36.2852 391.828C45.491 394.217 56.2049 394.066 66.2069 394.391C72.6701 394.602 78.8463 397.21 83.2593 397.439C87.6691 397.668 91.4609 393.669 96.0874 392.363C100.527 391.111 105.351 388.742 112.195 389.926C117.727 390.883 123.078 390.926 128.087 391.847C136.353 393.367 148.211 392.941 156.175 392.501C162.668 392.142 168.946 389.743 188.091 388.891C201.122 388.311 209.162 389.113 212.878 391.961C218.334 396.144 225.111 391.812 230.49 390.979C236.939 389.981 245.675 390.573 259.088 390.787C265.814 390.894 270.643 391.166 275.278 391.657C285.484 392.738 300.596 391.879 302.82 390.714C303.913 390.141 304.922 389.585 305.067 388.31C305.441 385.017 303.225 380.324 302.814 375.769C302.332 370.431 308.389 365.668 310.911 355.674C315.863 336.045 313.525 323.519 313.606 308.207C313.646 300.616 310.152 285.813 308.398 276.363C307.294 270.417 307.355 260.457 307.92 250.014C309.22 226.012 309.644 220.107 309.253 205.658C309.067 198.772 309.056 193.575 309.648 187.948C310.713 177.824 306.727 173.208 305.595 162.347C302.509 132.747 304.427 128.117 305.84 123.577C307.361 118.691 305.276 114.312 304.292 109.903C303.227 105.13 302.949 99.9305 302.075 95.2232C300.982 89.3341 302.892 84.4627 303.761 79.8922C304.955 73.6157 303.761 64.5873 303.35 58.9488C302.83 51.8166 302.449 43.7314 301.326 38.7508C300.2 33.7555 299.774 26.1384 299.178 19.018C298.721 13.5565 298.641 9.14069 297.474 7.42908C295.02 3.83039 279.095 5.73703 261.831 5.17829C254.626 4.94521 242.605 8.93498 230.549 8.72614C218.515 8.51769 206.606 5.70715 191.618 5.70506C180.403 5.70343 176.851 10.3691 163.728 10.1696C149.478 9.95302 143.139 4.36469 127.886 5.04971C110.773 5.81826 106.831 10.3579 88.4172 10.6481C66.8189 10.9884 60.2174 4.94598 38.4312 5.86697C26.5795 6.36816 21.5315 8.16595 17.0782 9.42561C12.6304 10.6835 6.2072 12.2178 5.51218 18.1851C5.42695 18.917 5.48875 21.9108 5.48795 25.6491Z" stroke="#73C5E8" stroke-width="5" stroke-linecap="round"/>
</svg>
